# xmcd
#
# Track frame offsets:
#	225
#	15070
#	34474
#	54034
#	73041
#	96254
#	114186
#	130507
#	147449
#	166809
#	192235
#	213252
#	230888
#	251149
#	273459
#
# Disc length: 3950 seconds
#
# Revision: 1
# Processed by: cddbd v1.4PL0 Copyright (c) Steve Scherf et al.
# Submitted via: audiograbber 1.81.02
#
DISCID=ce0f6b0f
DTITLE=Duke Davis - Chase The Wind
DYEAR=1998
DGENRE=Western
TTITLE0=Cowboy
TTITLE1=Makin' The West My Home
TTITLE2=Fall Work
TTITLE3=Back In Texas
TTITLE4=Colorado Cowboy
TTITLE5=Saddle Bound And Soaring
TTITLE6=No One Can Break 'Em Like Me
TTITLE7=Many A River
TTITLE8=Ol' Rooster
TTITLE9=Pecos Moon
TTITLE10=Blood In The Sand
TTITLE11=The Old Cocinero
TTITLE12=Billy And Juanita
TTITLE13=Remember The Eagle
TTITLE14=Where Do The Cowboys Go
EXTD=
EXTT0=
EXTT1=
EXTT2=
EXTT3=
EXTT4=
EXTT5=
EXTT6=
EXTT7=
EXTT8=
EXTT9=
EXTT10=
EXTT11=
EXTT12=
EXTT13=
EXTT14=
PLAYORDER=
